<svg width="134.889160" height="29.419922" viewBox="0 0 134.889 29.4199" fill="none" xmlns="http://www.w3.org/2000/svg" xmlns:xlink="http://www.w3.org/1999/xlink">
	<desc>
			Created with Pixso.
	</desc>
	<defs>
		<filter id="filter_1895_8_dd" x="0.000000" y="0.000000" width="134.889160" height="29.419922" filterUnits="userSpaceOnUse" color-interpolation-filters="sRGB">
			<feFlood flood-opacity="0" result="BackgroundImageFix"/>
			<feColorMatrix in="SourceAlpha" type="matrix" values="0 0 0 0 0 0 0 0 0 0 0 0 0 0 0 0 0 0 127 0" result="hardAlpha"/>
			<feOffset dx="0" dy="4"/>
			<feGaussianBlur stdDeviation="1.33333"/>
			<feComposite in2="hardAlpha" operator="out" k2="-1" k3="1"/>
			<feColorMatrix type="matrix" values="0 0 0 0 0 0 0 0 0 0 0 0 0 0 0 0 0 0 0.25 0"/>
			<feBlend mode="normal" in2="BackgroundImageFix" result="effect_dropShadow_1"/>
			<feBlend mode="normal" in="SourceGraphic" in2="effect_dropShadow_1" result="shape"/>
		</filter>
	</defs>
	<g filter="url(#filter_1895_8_dd)">
		<path id="Метрика" d="M14.29 11.1L24.34 0L24.61 0L24.61 21.17L20.62 21.17L20.62 9.84L14.4 16.46L14.13 16.46L7.98 9.84L7.98 21.17L4 21.17L4 0L4.23 0L14.29 11.1ZM75.78 0.17L79.77 0.17L79.77 11.97L91.68 0L91.95 0L91.95 21.17L87.96 21.17L87.96 9.41L76.05 21.41L75.78 21.41L75.78 0.17ZM27 0.17L40.77 0.17L40.77 4.02L27 4.02L27 0.17ZM42.11 4.02L42.11 0.17L57.41 0.17L57.41 4.02L42.11 4.02ZM59.07 0.17L66.84 0.17C71.52 0.17 74.13 3.23 74.13 7.08C74.13 10.91 71.52 13.98 66.84 13.98L63.06 13.98L63.06 21.17L59.07 21.17L59.07 10.16L66.75 10.16C68.76 10.16 70.02 8.88 70.02 7.08C70.02 5.28 68.76 4.02 66.75 4.02L59.07 4.02L59.07 0.17ZM111.16 21.17L106.18 21.17L100.9 12.57L98.35 12.57L98.35 21.17L94.36 21.17L94.36 0.17L98.35 0.17L98.35 8.76L100.81 8.76L106.33 0.17L110.71 0.17L104.38 10.53L111.16 21.17ZM119.12 0.17L123.2 0.17L130.88 21.17L126.35 21.17L121.16 6.17L115.97 21.17L111.44 21.17L119.12 0.17ZM51.77 21.17L47.78 21.17L47.78 7.13L51.77 7.13L51.77 21.17ZM27 8.79L39.84 8.79L39.84 12.6L27 12.6L27 8.79ZM27 21.17L27 17.37L40.95 17.37L40.95 21.17L27 21.17Z" fill="#121212" fill-opacity="1.000000" fill-rule="evenodd"/>
	</g>
</svg>
