<svg width="96.000000" height="16.000000" viewBox="0 0 96 16" fill="none" xmlns="http://www.w3.org/2000/svg" xmlns:xlink="http://www.w3.org/1999/xlink">
	<desc>
			Created with Pixso.
	</desc>
	<defs/>
	<path id="Метрика" d="M7.78 8.29L15.38 0L15.59 0L15.59 15.82L12.57 15.82L12.57 7.35L7.87 12.3L7.67 12.3L3.01 7.35L3.01 15.82L0 15.82L0 0L0.18 0L7.78 8.29ZM54.3 0.13L57.32 0.13L57.32 8.94L66.33 0L66.54 0L66.54 15.82L63.52 15.82L63.52 7.03L54.51 16L54.3 16L54.3 0.13ZM17.4 0.13L27.82 0.13L27.82 3L17.4 3L17.4 0.13ZM28.83 3L28.83 0.13L40.41 0.13L40.41 3L28.83 3ZM41.66 0.13L47.54 0.13C51.08 0.13 53.06 2.42 53.06 5.28C53.06 8.15 51.08 10.44 47.54 10.44L44.68 10.44L44.68 15.82L41.66 15.82L41.66 7.59L47.47 7.59C48.99 7.59 49.95 6.63 49.95 5.28C49.95 3.94 48.99 3 47.47 3L41.66 3L41.66 0.13ZM81.07 15.82L77.3 15.82L73.31 9.38L71.38 9.38L71.38 15.82L68.36 15.82L68.36 0.13L71.38 0.13L71.38 6.54L73.24 6.54L77.42 0.13L80.73 0.13L75.94 7.86L81.07 15.82ZM87.1 0.13L90.18 0.13L96 15.82L92.57 15.82L88.64 4.61L84.71 15.82L81.29 15.82L87.1 0.13ZM36.14 15.82L33.12 15.82L33.12 5.33L36.14 5.33L36.14 15.82ZM17.4 6.56L27.12 6.56L27.12 9.41L17.4 9.41L17.4 6.56ZM17.4 15.82L17.4 12.97L27.96 12.97L27.96 15.82L17.4 15.82Z" fill="#121212" fill-opacity="1.000000" fill-rule="evenodd"/>
</svg>
