<svg width="18.000000" height="18.000000" viewBox="0 0 18 18" fill="none" xmlns="http://www.w3.org/2000/svg" xmlns:xlink="http://www.w3.org/1999/xlink">
	<desc>
			Created with Pixso.
	</desc>
	<defs>
		<clipPath id="clip1895_445">
			<rect id="material-symbols:mail-outline-rounded" rx="-0.380172" width="17.239656" height="17.239656" transform="translate(0.380172 0.380172)" fill="white" fill-opacity="0"/>
		</clipPath>
	</defs>
	<rect id="material-symbols:mail-outline-rounded" rx="-0.380172" width="17.239656" height="17.239656" transform="translate(0.380172 0.380172)" fill="#FFFFFF" fill-opacity="0"/>
	<g clip-path="url(#clip1895_445)">
		<path id="Vector" d="M3 15C2.58 15 2.23 14.85 1.94 14.55C1.64 14.26 1.5 13.91 1.5 13.5L1.5 4.5C1.5 4.08 1.64 3.73 1.94 3.44C2.23 3.14 2.58 3 3 3L15 3C15.41 3 15.76 3.14 16.05 3.44C16.35 3.73 16.5 4.08 16.5 4.5L16.5 13.5C16.5 13.91 16.35 14.26 16.05 14.55C15.76 14.85 15.41 15 15 15L3 15ZM15 6L9.39 9.5C9.33 9.54 9.26 9.57 9.19 9.59C9.12 9.6 9.06 9.61 9 9.61C8.93 9.61 8.87 9.6 8.8 9.59C8.73 9.57 8.66 9.54 8.6 9.5L3 6L3 13.5L15 13.5L15 6ZM9 8.25L15 4.5L3 4.5L9 8.25ZM3 6.18L3 5.08L3 5.1L3 5.09L3 6.18Z" fill="#000000" fill-opacity="1.000000" fill-rule="nonzero"/>
	</g>
</svg>
