<svg width="13.000000" height="22.000000" viewBox="0 0 13 22" fill="none" xmlns="http://www.w3.org/2000/svg" xmlns:xlink="http://www.w3.org/1999/xlink">
	<desc>
			Created with Pixso.
	</desc>
	<defs/>
	<path id="Vector" d="M10.5 0L2.5 0C1.83 0 1.2 0.26 0.73 0.73C0.26 1.2 0 1.83 0 2.5L0 19.5C0 20.16 0.26 20.79 0.73 21.26C1.2 21.73 1.83 22 2.5 22L10.5 22C11.16 22 11.79 21.73 12.26 21.26C12.73 20.79 13 20.16 13 19.5L13 2.5C13 1.83 12.73 1.2 12.26 0.73C11.79 0.26 11.16 0 10.5 0ZM6.5 21C5.66 21 5 20.33 5 19.5C5 18.66 5.66 18 6.5 18C7.33 18 8 18.66 8 19.5C8 20.33 7.33 21 6.5 21ZM11 17L2 17L2 3L11 3L11 17Z" fill="#000000" fill-opacity="1.000000" fill-rule="nonzero"/>
</svg>
