<svg width="9.750000" height="16.500000" viewBox="0 0 9.75 16.5" fill="none" xmlns="http://www.w3.org/2000/svg" xmlns:xlink="http://www.w3.org/1999/xlink">
	<desc>
			Created with Pixso.
	</desc>
	<defs/>
	<path id="Vector" d="M7.87 0L1.87 0C1.37 0 0.9 0.19 0.54 0.54C0.19 0.9 0 1.37 0 1.87L0 14.62C0 15.12 0.19 15.59 0.54 15.95C0.9 16.3 1.37 16.5 1.87 16.5L7.87 16.5C8.37 16.5 8.84 16.3 9.2 15.95C9.55 15.59 9.75 15.12 9.75 14.62L9.75 1.87C9.75 1.37 9.55 0.9 9.2 0.54C8.84 0.19 8.37 0 7.87 0ZM4.87 15.75C4.25 15.75 3.75 15.24 3.75 14.62C3.75 14 4.25 13.5 4.87 13.5C5.49 13.5 6 14 6 14.62C6 15.24 5.49 15.75 4.87 15.75ZM8.25 12.75L1.5 12.75L1.5 2.25L8.25 2.25L8.25 12.75Z" fill="#000000" fill-opacity="1.000000" fill-rule="nonzero"/>
</svg>
