<svg width="17.802612" height="17.802368" viewBox="0 0 17.8026 17.8024" fill="none" xmlns="http://www.w3.org/2000/svg" xmlns:xlink="http://www.w3.org/1999/xlink">
	<desc>
			Created with Pixso.
	</desc>
	<defs/>
	<path id="Vector" d="M17.46 1.96C17.57 1.85 17.65 1.73 17.71 1.59C17.77 1.45 17.8 1.3 17.8 1.15C17.8 1 17.77 0.85 17.71 0.71C17.65 0.57 17.57 0.44 17.46 0.33C17.35 0.23 17.23 0.14 17.09 0.08C16.95 0.03 16.8 0 16.65 0C16.5 0 16.35 0.03 16.21 0.08C16.07 0.14 15.94 0.23 15.83 0.33L8.9 7.27L1.96 0.33C1.74 0.12 1.45 0 1.15 0C0.84 0 0.55 0.12 0.33 0.33C0.12 0.55 0 0.84 0 1.15C0 1.45 0.12 1.74 0.33 1.96L7.27 8.9L0.33 15.83C0.23 15.94 0.14 16.07 0.08 16.21C0.02 16.35 0 16.5 0 16.65C0 16.8 0.02 16.95 0.08 17.09C0.14 17.23 0.23 17.35 0.33 17.46C0.55 17.68 0.84 17.8 1.15 17.8C1.3 17.8 1.45 17.77 1.59 17.71C1.73 17.65 1.85 17.57 1.96 17.46L8.9 10.52L15.83 17.46C16.05 17.68 16.34 17.8 16.65 17.8C16.95 17.8 17.25 17.68 17.46 17.46C17.68 17.24 17.8 16.95 17.8 16.65C17.8 16.34 17.68 16.05 17.46 15.83L10.52 8.9L17.46 1.96Z" fill="#000000" fill-opacity="1.000000" fill-rule="evenodd"/>
</svg>
