<svg width="156.000000" height="26.000000" viewBox="0 0 156 26" fill="none" xmlns="http://www.w3.org/2000/svg" xmlns:xlink="http://www.w3.org/1999/xlink">
	<desc>
			Created with Pixso.
	</desc>
	<defs/>
	<path id="Метрика" d="M12.65 13.47L25 0L25.33 0L25.33 25.7L20.43 25.7L20.43 11.94L12.79 19.99L12.46 19.99L4.9 11.94L4.9 25.7L0 25.7L0 0L0.29 0L12.65 13.47ZM88.24 0.21L93.15 0.21L93.15 14.52L107.79 0L108.12 0L108.12 25.7L103.22 25.7L103.22 11.43L88.58 26L88.24 26L88.24 0.21ZM28.28 0.21L45.21 0.21L45.21 4.87L28.28 4.87L28.28 0.21ZM46.85 4.87L46.85 0.21L65.66 0.21L65.66 4.87L46.85 4.87ZM67.7 0.21L77.26 0.21C83.01 0.21 86.22 3.93 86.22 8.59C86.22 13.25 83.01 16.96 77.26 16.96L72.61 16.96L72.61 25.7L67.7 25.7L67.7 12.34L77.15 12.34C79.62 12.34 81.17 10.77 81.17 8.59C81.17 6.4 79.62 4.87 77.15 4.87L67.7 4.87L67.7 0.21ZM131.74 25.7L125.62 25.7L119.13 15.25L116 15.25L116 25.7L111.09 25.7L111.09 0.21L116 0.21L116 10.63L119.02 10.63L125.81 0.21L131.19 0.21L123.41 12.78L131.74 25.7ZM141.54 0.21L146.55 0.21L156 25.7L150.43 25.7L144.05 7.5L137.66 25.7L132.1 25.7L141.54 0.21ZM58.73 25.7L53.82 25.7L53.82 8.66L58.73 8.66L58.73 25.7ZM28.28 10.66L44.06 10.66L44.06 15.29L28.28 15.29L28.28 10.66ZM28.28 25.7L28.28 21.08L45.43 21.08L45.43 25.7L28.28 25.7Z" fill="#121212" fill-opacity="1.000000" fill-rule="evenodd"/>
</svg>
